<?xml version="1.0" standalone="no"?>
<svg viewBox="0 0 200 200" xmlns="http://www.w3.org/2000/svg">
  <path fill="#CFD3CD" d="M41.9,-75.2C51.1,-67.3,52.9,-49.5,59.6,-35.3C66.2,-21.1,77.7,-10.5,81.7,2.3C85.7,15.2,82.3,30.3,75.5,44.4C68.8,58.5,58.7,71.4,45.6,77.9C32.5,84.5,16.2,84.6,0.9,83C-14.4,81.4,-28.8,78.1,-42,71.6C-55.2,65.1,-67.2,55.4,-73.3,43C-79.4,30.5,-79.5,15.3,-76.1,1.9C-72.8,-11.4,-65.9,-22.8,-60.4,-36.1C-54.9,-49.5,-50.6,-64.9,-40.8,-72.4C-30.9,-79.8,-15.5,-79.3,0.5,-80.1C16.4,-80.9,32.8,-83.1,41.9,-75.2Z" transform="translate(100 100)" />
</svg>
